<svg width="450" height="450" viewBox="0 0 450 450" fill="none" xmlns="http://www.w3.org/2000/svg">
<path fill-rule="evenodd" clip-rule="evenodd" d="M225 450C349.264 450 450 349.264 450 225C450 100.736 349.264 0 225 0C100.736 0 0 100.736 0 225C0 349.264 100.736 450 225 450ZM107.216 97.0656C110.954 94.9073 116.323 92.907 120.219 92.2753C123.956 91.6962 131.273 92.0647 134.958 93.0648C140.696 94.5914 146.486 97.9604 151.066 102.54C154.646 106.12 155.804 107.646 157.752 111.805C162.595 121.754 163.016 131.388 159.173 141.126C155.225 150.917 147.118 158.603 137.011 162.025C133.063 163.393 131.905 163.551 125.746 163.551C119.64 163.551 118.429 163.393 114.691 162.077C108.48 159.972 105.216 157.866 100.426 153.128C95.6879 148.338 93.5822 145.022 91.4766 138.863C90.2131 135.178 90.0026 133.862 90.0026 128.071C89.95 120.438 90.6869 117.543 94.0559 110.963C96.6354 106.015 102.426 99.8556 107.216 97.0656ZM282.248 168.605C268.193 169.868 255.822 175.343 245.347 184.924L242.346 187.661V183.923C242.346 178.554 240.819 175.764 236.661 173.658C235.134 172.869 232.344 172.816 210.34 172.921L185.704 173.079L183.546 174.501C183.232 174.707 182.944 174.853 182.679 174.986C182.443 175.105 182.226 175.214 182.026 175.349C179.682 176.929 179.684 181.988 179.7 246.372C179.702 252.186 179.703 258.484 179.703 265.307C179.703 348.479 179.756 351.059 180.703 352.638C181.23 353.533 182.598 354.849 183.704 355.533L185.757 356.797L211.972 356.955C229.502 357.06 238.819 356.902 240.24 356.534C243.083 355.797 245.873 353.217 246.557 350.848C246.873 349.585 247.084 331.055 247.084 298.312C247.084 295.785 247.083 293.378 247.083 291.086C247.078 250.982 247.077 245.981 248.921 241.792C249.184 241.195 249.484 240.615 249.827 239.953C249.959 239.697 250.097 239.43 250.242 239.144C253.137 233.459 258.138 229.142 264.35 226.984C268.245 225.562 275.668 225.51 279.458 226.773C285.459 228.826 291.302 233.459 293.408 237.986C293.63 238.446 293.835 238.857 294.023 239.249C294.193 239.6 294.349 239.936 294.493 240.276C296.22 244.348 296.246 249.141 296.472 290.762L296.514 298.418L296.83 351.112L298.356 353.059C299.198 354.165 300.883 355.533 302.146 356.06C304.305 357.06 305.779 357.06 328.572 356.955L352.682 356.797L354.577 355.533C355.577 354.849 356.998 353.428 357.683 352.428L358.946 350.532L359.104 289.995C359.262 227.142 359.157 223.72 357.051 215.455C352.945 199.084 342.68 185.45 327.941 176.606C316.517 169.763 300.725 166.973 282.248 168.605ZM95.53 180.712C96.9514 177.554 98.899 175.554 102.057 174.08C102.403 173.914 102.704 173.77 103.012 173.644C105.049 172.816 107.422 172.816 125.483 172.816C145.276 172.816 146.381 172.869 148.645 173.922C151.54 175.238 154.172 177.659 155.646 180.449L156.804 182.555V264.938V347.322L155.646 349.48C155.015 350.638 153.593 352.428 152.54 353.375C151.661 354.139 150.995 354.733 150.247 355.194C147.595 356.829 143.914 356.797 126.009 356.797C102.742 356.797 102.689 356.797 98.7412 353.165C98.0109 352.499 97.4031 352.142 96.8975 351.674C94.1233 349.105 94.4246 343.215 94.4246 264.938C94.4246 183.713 94.4772 183.081 95.53 180.712Z" fill="#FFFFFF"/>
</svg>
