<svg width="450" height="443" viewBox="0 0 450 443" fill="none" xmlns="http://www.w3.org/2000/svg">
<path fill-rule="evenodd" clip-rule="evenodd" d="M123.615 24.0821C150.018 10.9389 179.12 2.81622 209.561 0.74066C216.779 0.25651 220.761 0.00971095 224.648 0.000262277C224.746 0.00011242 224.843 2.498e-05 224.941 0C228.882 0.00254166 232.807 0.249428 239.996 0.74066C261.991 2.25257 283.105 6.75225 302.933 13.8628C388.787 45.5635 450 128.133 450 225C450 328.877 379.606 416.313 283.919 442.207C283.162 436.728 283.052 425.922 282.731 403.401C282.283 365.425 282.103 362.552 280.307 355.908C278.063 347.918 274.113 340.197 269.983 335.887C268.761 334.561 267.987 333.764 268.131 333.2C268.356 332.315 270.85 332.007 277.434 331.129C334.355 323.228 364.251 293.871 370.895 239.285C372.421 226.715 371.523 204.271 369.189 195.472C365.867 182.903 358.954 169.616 350.156 158.752L348.36 156.508L350.246 150.672C354.196 138.283 353.298 117.993 348.181 102.012C346.475 96.6251 346.026 95.9966 343.512 95.5477C340.639 95.0091 333.995 95.9069 326.364 97.7922C317.117 100.126 303.56 106.501 289.824 115.12L282.911 119.429L275.01 117.633C256.695 113.414 248.346 112.516 225.362 112.516C202.469 112.516 194.029 113.414 175.714 117.633L167.904 119.429L159.105 113.953C138.995 101.563 116.999 93.6624 107.392 95.458C104.699 95.9966 104.34 96.5353 102.544 102.012C96.9778 119.429 96.4391 138.193 101.108 152.647L102.454 156.867L98.5938 161.625C90.3341 171.77 84.3189 183.98 81.0868 197.358C78.8423 206.695 78.8423 236.232 81.0868 248.263C88.0896 285.88 106.854 309.851 139.354 322.69C147.075 325.742 163.145 329.872 172.393 331.129C179.376 332.096 182.052 332.388 182.306 333.332C182.477 333.966 181.556 334.893 180.114 336.516C176.343 340.735 171.944 349.803 170.238 356.985C169.609 359.948 168.712 362.821 168.442 363.36C167.365 365.066 153.359 368.926 146.446 369.465C128.401 370.811 114.215 363.18 102.903 346.032C94.7333 333.553 87.2816 327.089 76.0592 322.869C67.4403 319.547 56.577 321.074 56.577 325.563C56.577 327.448 60.3478 331.219 67.3506 336.246C76.8672 343.159 81.8051 349.893 90.2443 367.49C95.4515 378.263 97.0676 380.777 102.275 385.984C115.652 399.361 136.66 404.658 160.272 400.798C164.223 400.08 167.544 399.631 167.634 399.72C167.724 399.72 167.904 409.327 167.993 420.908C168.192 435.254 168.195 440.01 167.538 442.596C71.1096 417.2 0 329.404 0 225C0 137.208 50.2804 61.1605 123.615 24.0821Z" fill="#FFFFFF"/>
</svg>
