<svg width="450" height="450" viewBox="0 0 450 450" fill="none" xmlns="http://www.w3.org/2000/svg">
<path fill-rule="evenodd" clip-rule="evenodd" d="M225 450C349.264 450 450 349.264 450 225C450 100.736 349.264 0 225 0C100.736 0 0 100.736 0 225C0 349.264 100.736 450 225 450ZM303.465 330C303.465 334.812 299.534 338.75 294.729 338.75H154.946C150.141 338.75 146.209 334.812 146.209 330V120C146.209 115.188 150.141 111.25 154.946 111.25H242.31V155C242.31 164.68 250.118 172.5 259.783 172.5H303.465V330ZM154.946 85C135.671 85 120 100.695 120 120V330C120 349.305 135.671 365 154.946 365H294.729C314.003 365 329.674 349.305 329.674 330V169.492C329.674 160.195 326.016 151.281 319.464 144.719L270.048 95.2266C263.496 88.6641 254.596 85 245.313 85H154.946Z" fill="#FFFFFF"/>
</svg>
